<svg xmlns="http://www.w3.org/2000/svg" width="76" height="34" fill="none" viewBox="0 0 76 34"><rect width="76" height="34" fill="#dfd8fd" rx="17"/><path fill="#352c63" d="M15.7 11.9v1.5H11v3.2h3.7v1.5H11V23H9.2V11.9zm2.8 1.1q-.5 0-.8-.3t-.3-.9.3-.8.8-.3.8.3.4.8q0 .6-.4.9-.3.3-.8.3m1 1.2V23h-2v-8.8zm7-.2a4 4 0 0 1 1.8.5q.8.4 1.3 1.3t.4 2V23h-1.8v-5q0-1-.6-1.7a2 2 0 0 0-1.6-.7q-1 0-1.6.7t-.6 1.8V23H22v-8.8h1.8v1l1.1-.9zm8.2 1.7v4.9q0 .4.2.7l.8.2h1.1V23h-1.4q-1.3 0-2-.6t-.6-1.8v-5h-1v-1.4h1V12h1.9v2.2h2.1v1.5zm12 2.7v.9h-6.8a2.4 2.4 0 0 0 2.5 2.3q1.5 0 2.1-1.2h2a4 4 0 0 1-4 2.7q-1.5 0-2.3-.5-1-.6-1.6-1.6a5 5 0 0 1-.6-2.4q0-1.4.6-2.4a4 4 0 0 1 1.5-1.6q1-.6 2.3-.6t2.3.6 1.5 1.5.5 2.3m-1.9-.6a2 2 0 0 0-.7-1.6q-.7-.6-1.8-.6-.9 0-1.6.6-.6.6-.8 1.6zm3.3.8q0-1.4.5-2.4a4 4 0 0 1 1.5-1.6q1-.6 2.3-.6 1.6 0 2.6.8 1 .7 1.4 2.2h-2l-.7-1q-.5-.4-1.3-.4-1.2 0-1.8.8-.6.7-.7 2.2t.7 2.2q.6.8 1.8.8 1.5 0 2-1.4h2a4 4 0 0 1-1.4 2.2q-1 .7-2.6.7-1.3 0-2.3-.5T48.6 21t-.5-2.4M63 14q1 0 1.8.5t1.2 1.3.5 2V23h-1.8v-5q0-1-.6-1.7a2 2 0 0 0-1.6-.7q-1 0-1.7.7t-.6 1.8V23h-1.8V11.2h1.8v4l1.2-.9z"/></svg>